<?xml version="1.0" encoding="UTF-8"?>
<svg width="637px" height="449px" viewBox="0 0 637 449" version="1.1" xmlns="http://www.w3.org/2000/svg" xmlns:xlink="http://www.w3.org/1999/xlink">
    <!-- Generator: Sketch 54.1 (76490) - https://sketchapp.com -->
    <title>Slice 1</title>
    <desc>Created with Sketch.</desc>
    <g id="Page-1" stroke="none" stroke-width="1" fill="none" fill-rule="evenodd">
        <g id="5.1-02" transform="translate(-1325.000000, -76.000000)" fill-rule="nonzero">
            <g id="Object">
                <g id="Group" transform="translate(1325.000000, 76.000000)">
                    <path d="M318.3,185.7 L318.3,130 L199.6,130 L199.6,119.9 L318.3,119.9 L318.3,112.1 L199.6,112.1 L199.6,102 L318.3,102 L318.3,25.3 L290.6,25.8 L282.2,21.6 L255.9,20.2 L247.9,12.7 L244.6,3.8 L237.1,0.5 L238,16 L246,25.4 L243.2,34.3 L244.1,49.3 L232.8,49.3 L229,43.2 L208.4,44.1 L204.2,62.4 L181.2,61.9 L173.2,53 L159.1,52.1 L159.1,63.8 L168.5,72.7 L169.9,81.1 L156.8,81.6 L145.5,87.7 L143.6,116.3 L153.4,120.1 L156.7,130.4 L93.4,130.9 L85.4,121.5 L78.8,121 L76,148.2 L67.6,148.7 L64.3,141.7 L53.5,140.8 L51.2,157.7 L39.5,157.7 L36.7,152.1 L21.7,152.1 L11.4,156.8 L24.5,169 L4.8,173.7 L0.1,198.1 L17,206.5 L26.4,231.8 L37.7,224.3 L37.7,421.3 L26.4,431.6 L26.4,448.5 L318.1,448.5 L318.1,433.5 L232,433.5 L232,224.3 L318.3,185.7 Z M64.5,233.2 L54.3,233.2 L54.3,217 L64.5,217 L64.5,233.2 Z M195.4,388.2 L187.9,388.2 L187.9,424.8 L178.9,424.8 L178.9,433.2 L69.3,433.2 L69.3,278.5 L129.2,252.2 L195.5,279.4 L195.5,388.2 L195.4,388.2 Z M69.2,233.2 L69.2,217 L79.4,217 L79.4,233.2 L69.2,233.2 Z M89.2,233.2 L89.2,217 L99.4,217 L99.4,233.2 L89.2,233.2 Z M104.1,233.2 L104.1,217 L114.3,217 L114.3,233.2 L104.1,233.2 Z M124,233.2 L124,217 L134.2,217 L134.2,233.2 L124,233.2 Z M138.9,233.2 L138.9,217 L149.1,217 L149.1,233.2 L138.9,233.2 Z M158.9,233.2 L158.9,217 L169.1,217 L169.1,233.2 L158.9,233.2 Z M173.8,233.2 L173.8,217 L184,217 L184,233.2 L173.8,233.2 Z M195.4,211.3 L41.6,211.3 L41.6,204.8 L195.4,204.8 L195.4,211.3 Z M195.4,199.7 L41.6,199.7 L41.6,193.2 L195.4,193.2 L195.4,199.7 Z M296,138.9 L311.7,138.9 L311.7,163.9 L296,163.9 L296,138.9 Z M273,138.9 L288.7,138.9 L288.7,163.9 L273,163.9 L273,138.9 Z M242.2,138.9 L257.9,138.9 L257.9,163.9 L242.2,163.9 L242.2,138.9 Z M219.2,163.8 L219.2,138.8 L234.9,138.8 L234.9,163.8 L219.2,163.8 Z" id="Shape" fill="#349723"></path>
                    <path d="M404.5,224.3 L404.5,433.2 L318.2,433.2 L318.2,448.2 L609.9,448.2 L609.9,431.3 L598.6,421 L598.6,224 L609.9,231.5 L619.3,206.2 L636.2,197.8 L631.5,173.4 L611.8,168.7 L624.9,156.5 L614.6,151.8 L599.6,151.8 L596.8,157.4 L585.1,157.4 L582.8,140.5 L572,141.4 L568.7,148.4 L560.3,147.9 L557.5,120.7 L550.9,121.2 L542.9,130.6 L479.6,130.1 L482.9,119.8 L492.7,116 L490.8,87.4 L479.5,81.3 L466.4,80.8 L467.8,72.4 L477.2,63.5 L477.2,52 L463.1,52.9 L455.1,61.8 L432.1,62.3 L428,44 L407.4,43.1 L403.6,49.2 L392.3,49.2 L393.2,34.2 L390.4,25.3 L398.4,15.9 L399.3,0.4 L391.8,3.7 L388.5,12.6 L380.5,20.1 L354.2,21.5 L345.8,25.7 L318.1,25.2 L318.1,101.9 L437,101.9 L437,112 L318.3,112 L318.3,119.8 L437,119.8 L437,130 L318.3,130 L318.3,185.7 L404.5,224.3 Z M572.1,217.1 L582.3,217.1 L582.3,233.3 L572.1,233.3 L572.1,217.1 Z M441.1,279.4 L507.4,252.2 L567.3,278.5 L567.3,433.2 L457.7,433.2 L457.7,424.8 L448.7,424.8 L448.7,388.2 L441.2,388.2 L441.2,279.4 L441.1,279.4 Z M557.1,233.2 L557.1,217 L567.3,217 L567.3,233.2 L557.1,233.2 Z M537.2,233.2 L537.2,217 L547.4,217 L547.4,233.2 L537.2,233.2 Z M522.3,233.2 L522.3,217 L532.5,217 L532.5,233.2 L522.3,233.2 Z M502.4,233.2 L502.4,217 L512.6,217 L512.6,233.2 L502.4,233.2 Z M487.4,233.2 L487.4,217 L497.6,217 L497.6,233.2 L487.4,233.2 Z M467.5,233.2 L467.5,217 L477.7,217 L477.7,233.2 L467.5,233.2 Z M452.6,233.2 L452.6,217 L462.8,217 L462.8,233.2 L452.6,233.2 Z M441.1,204.8 L594.9,204.8 L594.9,211.3 L441.1,211.3 L441.1,204.8 L441.1,204.8 Z M441.1,193.2 L594.9,193.2 L594.9,199.7 L441.1,199.7 L441.1,193.2 L441.1,193.2 Z M340.5,163.8 L324.8,163.8 L324.8,138.8 L340.5,138.8 L340.5,163.8 Z M363.6,163.8 L347.9,163.8 L347.9,138.8 L363.6,138.8 L363.6,163.8 Z M394.3,163.8 L378.6,163.8 L378.6,138.8 L394.3,138.8 L394.3,163.8 Z M401.7,163.8 L401.7,138.8 L417.4,138.8 L417.4,163.8 L401.7,163.8 Z" id="Shape" fill="#4EB33C"></path>
                </g>
            </g>
        </g>
    </g>
</svg>